# AST/ASF file generated using VICON BodyLanguage
# -----------------------------------------------
:version 1.10
:name VICON
:units
  mass 1.0
  length 0.45
  angle deg
:documentation
   .ast/.asf automatically generated from VICON data using
   VICON BodyBuilder and BodyLanguage model FoxedUp or BRILLIANT.MOD
:root
   order TX TY TZ RX RY RZ
   axis XYZ
   position 0 0 0  
   orientation 0 0 0 
:bonedata
  begin
     id 1 
     name lhipjoint
     direction 0.621036 -0.695554 0.361275 
     length 2.46325 
     axis 0 0 0  XYZ
  end
  begin
     id 2 
     name lfemur
     direction 0.34202 -0.939693 0  
     length 6.54784  
     axis 0 0 20  XYZ
    dof rx ry rz
    limits (-160.0 20.0)
           (-70.0 70.0)
           (-60.0 70.0)
  end
  begin
     id 3 
     name ltibia
     direction 0.34202 -0.939693 0   
     length 7.84737   
     axis 0 0 20   XYZ
    dof rx
    limits (-10.0 170.0)
  end
  begin
     id 4 
     name lfoot
     direction 0.0790693 -0.217241 0.97291   
     length 2.59747   
     axis -90 7.62852e-016 20   XYZ
    dof rx rz
    limits (-45.0 90.0)
           (-70.0 20.0)
  end
  begin
     id 5 
     name ltoes
     direction 1.53572e-011 -4.21898e-011 1   
     length 1.29919   
     axis -90 7.62852e-016 20   XYZ
    dof rx
    limits (-90.0 20.0)
  end
  begin
     id 6 
     name rhipjoint
     direction -0.602353 -0.708375 0.367935   
     length 2.41867  
     axis 0 0 0  XYZ 
  end
  begin
     id 7 
     name rfemur
     direction -0.34202 -0.939693 0   
     length 6.92065   
     axis 0 0 -20   XYZ
    dof rx ry rz
    limits (-160.0 20.0)
           (-70.0 70.0)
           (-70.0 60.0)
  end
  begin
     id 8 
     name rtibia
     direction -0.34202 -0.939693 0   
     length 7.88883   
     axis 0 0 -20   XYZ
    dof rx
    limits (-10.0 170.0)
 end
 begin
     id 9 
     name rfoot
     direction -0.0768692 -0.211196 0.974416   
     length 2.43714  
     axis -90 -7.62852e-016 -20   XYZ
    dof rx rz
    limits (-45.0 90.0)
           (-20.0 70.0)
  end
  begin
     id 10 
     name rtoes
     direction -1.53575e-011 -4.21933e-011 1   
     length 1.22113   
     axis -90 -7.62852e-016 -20   XYZ
    dof rx
    limits (-90.0 20.0)
  end
  begin
     id 11 
     name lowerback
     direction 0.0197937 0.98943 -0.143655   
     length 2.16931   
     axis 0 0 0   XYZ
    dof rx ry rz
    limits (-20.0 45.0)
           (-30.0 30.0)
           (-30.0 30.0)
  end
  begin
     id 12 
     name upperback
     direction -0.00183968 0.999975 0.00684288   
     length 2.17221   
     axis 0 0 0   XYZ
    dof rx ry rz
    limits (-20.0 45.0)
           (-30.0 30.0)
           (-30.0 30.0)
  end
  begin
     id 13 
     name thorax
     direction -0.00950244 0.997208 0.0740685   
     length 2.22549   
     axis 0 0 0   XYZ
    dof rx ry rz
    limits (-20.0 45.0)
           (-30.0 30.0)
           (-30.0 30.0)
  end
  begin
     id 14 
     name lowerneck
     direction 0.0218238 0.996215 0.0841425   
     length 1.77269   
     axis 0 0 0   XYZ
    dof rx ry rz
    limits (-20.0 45.0)
           (-30.0 30.0)
           (-30.0 30.0)
  end
  begin
     id 15 
     name upperneck
     direction -0.00430652 0.994214 -0.107332   
     length 1.76534   
     axis 0 0 0   XYZ
    dof rx ry rz
    limits (-20.0 45.0)
           (-30.0 30.0)
           (-30.0 30.0)
  end
  begin
     id 16
     name head
     direction -0.00328946 0.998959 -0.0454998  
     length 1.82634  
     axis 0 0 0   XYZ
    dof rx ry rz
    limits (-20.0 45.0)
           (-30.0 30.0)
           (-30.0 30.0)
  end
  begin
     id 17 
     name lclavicle
     direction 0.970962 0.239191 0.00450212  
     length 3.84872  
     axis 0 0 0   XYZ
    dof ry rz
    limits (-20.0 10.0)
           (0.0 20.0)
  end
  begin
     id 18 
     name lhumerus
     direction 1 -4.48966e-011 5.74696e-028   
     length 5.22771   
     axis 180 -30 -90   XYZ
    dof rx ry rz
    limits (-60.0 90.0)
           (-90.0 90.0)
           (-90.0 90.0)
  end
  begin
     id 19
     name lradius
     direction 1 -4.4896e-011 4.25109e-027   
     length 3.45251   
     axis 180 -30 -90   XYZ
    dof rx
    limits (-10.0 170.0)
  end
  begin
     id 20
     name lwrist
     direction 1 -4.48971e-011 1.15382e-027   
     length 1.72626   
     axis -5.52449e-016 90 90   XYZ
    dof ry
    limits (-180.0 0.0)
 end
  begin
     id 21 
     name lhand
     direction 1 -4.49034e-011 2.30765e-027   
     length 0.552119   
     axis -1.47248e-015 90 90   XYZ
    dof rx rz
    limits (-90.0 90.0)
           (-45.0 45.0)
  end
  begin
     id 22 
     name lfingers
     direction 1 -4.48951e-011 4.61529e-027   
     length 0.445133   
     axis -2.94495e-015 90 90   XYZ
    dof rx
    limits (0.0 90.0)
  end
  begin
     id 23
     name lthumb
     direction 0.707107 -6.34991e-011 0.707107   
     length 0.639124   
     axis -90 45 2.85299e-015   XYZ
    dof rx rz
    limits (-45.0 45.0)
           (-45.0 45.0)
  end
  begin
     id 24 
     name rclavicle
     direction -0.97424 0.222511 -0.0366699   
     length 3.73439  
     axis 0 0 0   XYZ 
    dof ry rz
    limits (-10.0 20.0)
           (-20.0 0.0)
  end
  begin
     id 25 
     name rhumerus
     direction -1 -4.48956e-011 -4.97258e-028  
     length 5.2398   
     axis 180 30 90   XYZ
    dof rx ry rz
    limits (-90.0 60.0)
           (-90.0 90.0)
           (-90.0 90.0)
  end
  begin
     id 26 
     name rradius
     direction -1 -4.4897e-011 -1.72611e-027   
     length 3.48042   
     axis 180 30 90   XYZ
    dof rx
    limits (-10.0 170.0)
  end
  begin
     id 27 
     name rwrist
     direction -1 -4.48976e-011 1.15382e-027   
     length 1.74021   
     axis -5.52449e-016 -90 -90   XYZ
    dof ry
    limits (-180.0 0.0)
  end
  begin
     id 28
     name rhand
     direction -1 -4.48963e-011 2.30765e-027   
     length 0.618713   
     axis -1.47248e-015 -90 -90   XYZ
    dof rx rz
    limits (-90.0 90.0)
           (-45.0 45.0)
  end
  begin
     id 29
     name rfingers
     direction -1 -4.4888e-011 4.61529e-027   
     length 0.498823   
     axis -2.94495e-015 -90 -90   XYZ
    dof rx
    limits (0.0 90.0)
  end
  begin
     id 30
     name rthumb
     direction -0.707107 -6.34968e-011 0.707107   
     length 0.716213   
     axis -90 -45 -2.85299e-015   XYZ
    dof rx rz
    limits (-45.0 45.0)
           (-45.0 45.0)
  end
:hierarchy
  begin
    root lhipjoint rhipjoint lowerback
    lhipjoint lfemur
    lfemur ltibia
    ltibia lfoot
    lfoot ltoes
    rhipjoint rfemur
    rfemur rtibia
    rtibia rfoot
    rfoot rtoes
    lowerback upperback
    upperback thorax
    thorax lowerneck lclavicle rclavicle
    lowerneck upperneck
    upperneck head
    lclavicle lhumerus
    lhumerus lradius
    lradius lwrist
    lwrist lhand lthumb
    lhand lfingers
    rclavicle rhumerus
    rhumerus rradius
    rradius rwrist
    rwrist rhand rthumb
    rhand rfingers
  end

#!OML:ASF G:\JayActor3\Patient Classification 1\Patient 1\Session 5\male.ASF
:FULLY-SPECIFIED
:DEGREES
337
root 36.2721 16.2441 -4.19327 -80.2295 88.2025 -105.098
lowerback 27.6478 -1.48132 1.07387
upperback 6.34643 -1.07941 -0.0936088
thorax -8.21981 -0.314426 -0.390008
lowerneck 4.03154 -0.308508 0.728493
upperneck -18.7201 0.553364 3.10682
head -6.34515 0.145072 0.81211
rclavicle -2.18663e-014 -1.33186e-014
rhumerus -28.439 1.20911 -86.7341
rradius 32.7357
rwrist -2.78185
rhand -21.398 -6.6437
rfingers 7.12502
rthumb 4.9901 -36.5649
lclavicle -2.18663e-014 -1.33186e-014
lhumerus -27.2522 -4.26937 86.7894
lradius 33.4725
lwrist 21.2073
lhand -20.7458 9.38664
lfingers 7.12502
lthumb 5.61978 39.2921
rfemur -56.5877 7.31871 22.2338
rtibia 44.6492
rfoot -12.1457 -20.9961
rtoes 8.38742
lfemur -42.5876 7.62636 -19.965
ltibia 66.5359
lfoot -12.5199 6.11169
ltoes -17.8468
338
root 36.1956 16.244 -4.21045 -77.4034 88.2373 -102.329
lowerback 27.5727 -1.45525 1.0288
upperback 6.32371 -1.06413 -0.0979671
thorax -8.20705 -0.308191 -0.374515
lowerneck 3.99833 -0.303689 0.720399
upperneck -18.66 0.551402 3.08734
head -6.32012 0.146339 0.807217
rclavicle -3.97569e-015 -3.57812e-015
rhumerus -28.4325 1.18298 -86.7369
rradius 32.7178
rwrist -2.76028
rhand -21.3911 -6.63982
rfingers 7.12502
rthumb 4.99668 -36.5609
lclavicle -3.97569e-015 -3.57812e-015
lhumerus -27.2579 -4.2659 86.8298
lradius 33.5294
lwrist 21.1651
lhand -20.6719 9.59943
lfingers 7.12502
lthumb 5.69111 39.503
rfemur -56.8642 7.26056 22.1234
rtibia 44.4385
rfoot -11.6743 -20.9108
rtoes 8.27207
lfemur -42.0213 7.6646 -20.2182
ltibia 64.9256
lfoot -12.1658 6.08586
ltoes -17.5776
339
root 36.1177 16.2427 -4.22804 -74.2715 88.2701 -99.2582
lowerback 27.4917 -1.42762 0.970423
upperback 6.303 -1.0503 -0.100573
thorax -8.18881 -0.302364 -0.348977
lowerneck 3.9721 -0.303509 0.722401
upperneck -18.6217 0.543337 3.05633
head -6.30315 0.144712 0.79744
rclavicle 2.14687e-014 3.22031e-014
rhumerus -28.4224 1.18118 -86.7447
rradius 32.7266
rwrist -2.76476
rhand -21.3823 -6.6326
rfingers 7.12502
rthumb 5.00526 -36.5535
lclavicle 2.14687e-014 3.22031e-014
lhumerus -27.2678 -4.25454 86.8687
lradius 33.5804
lwrist 21.1625
lhand -20.6262 9.71915
lfingers 7.12502
lthumb 5.73529 39.6215
rfemur -57.1561 7.22923 21.9929
rtibia 44.2361
rfoot -11.2234 -20.8412
rtoes 8.18982
lfemur -41.4844 7.6993 -20.4808
ltibia 63.3412
lfoot -11.9015 6.08768
ltoes -17.4388
340
root 36.0387 16.2409 -4.24626 -71.0002 88.2959 -96.045
lowerback 27.4131 -1.40185 0.908921
upperback 6.28352 -1.03933 -0.102594
thorax -8.17038 -0.297753 -0.320002
lowerneck 3.96458 -0.304673 0.731612
upperneck -18.6133 0.534824 3.01834
head -6.29898 0.142666 0.784364
rclavicle -2.3059e-014 -2.08724e-014
rhumerus -28.4192 1.20079 -86.7592
rradius 32.7688
rwrist -2.79382
rhand -21.3493 -6.6348
rfingers 7.12502
rthumb 5.03709 -36.5549
lclavicle -2.3059e-014 -2.08724e-014
lhumerus -27.288 -4.24893 86.9022
lradius 33.6372
lwrist 21.1545
lhand -20.5929 9.82925
lfingers 7.12502
lthumb 5.76736 39.7308
rfemur -57.4501 7.21598 21.8507
rtibia 44.0386
rfoot -10.7929 -20.787
rtoes 8.13564
lfemur -40.9661 7.73207 -20.7464
ltibia 61.813
lfoot -11.8794 6.1317
ltoes -17.6167
341
root 35.9586 16.238 -4.26522 -67.5094 88.3178 -92.604
lowerback 27.3416 -1.37716 0.843558
upperback 6.26689 -1.03045 -0.106983
thorax -8.15219 -0.293904 -0.290686
lowerneck 3.97441 -0.306531 0.744913
upperneck -18.6331 0.527877 2.9818
head -6.30684 0.140821 0.771047
rclavicle -3.65764e-014 -2.64384e-014
rhumerus -28.4241 1.23614 -86.7806
rradius 32.8456
rwrist -2.84911
rhand -21.323 -6.6266
rfingers 7.12502
rthumb 5.06251 -36.5461
lclavicle -3.65764e-014 -2.64384e-014
lhumerus -27.3108 -4.2541 86.9254
lradius 33.7025
lwrist 21.1305
lhand -20.5316 9.96449
lfingers 7.12502
lthumb 5.82655 39.8644
rfemur -57.7419 7.20845 21.7018
rtibia 43.8455
rfoot -10.3774 -20.737
rtoes 8.11012
lfemur -40.4616 7.77265 -21.019
ltibia 60.3735
lfoot -12.1538 6.23038
ltoes -18.1594
342
root 35.8774 16.2344 -4.28525 -63.8478 88.3289 -88.9756
lowerback 27.2865 -1.35515 0.782894
upperback 6.2525 -1.02321 -0.114217
thorax -8.1398 -0.290714 -0.266545
lowerneck 3.99715 -0.301929 0.756918
upperneck -18.6687 0.531582 2.94907
head -6.3221 0.143882 0.758499
rclavicle 2.38542e-014 9.54166e-015
rhumerus -28.442 1.28179 -86.8105
rradius 32.9532
rwrist -2.92319
rhand -21.2894 -6.62166
rfingers 7.12502
rthumb 5.09495 -36.5404
lclavicle 2.38542e-014 9.54166e-015
lhumerus -27.3388 -4.27757 86.9361
lradius 33.7794
lwrist 21.0996
lhand -20.4408 10.1356
lfingers 7.12502
lthumb 5.91427 40.0331
rfemur -58.0184 7.19806 21.5595
rtibia 43.6536
rfoot -9.96959 -20.6843
rtoes 8.11107
lfemur -39.9595 7.82744 -21.2918
ltibia 59.0421
lfoot -12.7267 6.40067
ltoes -19.0177
343
root 35.7951 16.23 -4.30633 -59.8829 88.3319 -85.0266
lowerback 27.2435 -1.33359 0.721662
upperback 6.24227 -1.01634 -0.12528
thorax -8.12884 -0.28747 -0.246122
lowerneck 4.0243 -0.287504 0.765145
upperneck -18.7041 0.549097 2.91877
head -6.33824 0.153758 0.74643
rclavicle -2.62396e-014 -1.70955e-014
rhumerus -28.4646 1.33252 -86.8464
rradius 33.0773
rwrist -3.01408
rhand -21.2623 -6.61192
rfingers 7.12502
rthumb 5.12108 -36.53
lclavicle -2.62396e-014 -1.70955e-014
lhumerus -27.3664 -4.32377 86.9389
lradius 33.8608
lwrist 21.0722
lhand -20.3375 10.3198
lfingers 7.12502
lthumb 6.01394 40.2145
rfemur -58.2806 7.18468 21.4204
rtibia 43.4634
rfoot -9.57021 -20.6276
rtoes 8.15422
lfemur -39.4597 7.8993 -21.569
ltibia 57.8221
lfoot -13.5358 6.65519
ltoes -20.1569
344
root 35.7117 16.2249 -4.32859 -55.8033 88.3219 -80.9425
lowerback 27.2166 -1.31441 0.666096
upperback 6.23586 -1.01037 -0.138761
thorax -8.12174 -0.2845 -0.231224
lowerneck 4.0576 -0.269078 0.774494
upperneck -18.7275 0.572197 2.89241
head -6.35175 0.165813 0.735026
rclavicle -1.74931e-014 -1.82882e-014
rhumerus -28.4874 1.37989 -86.8874
rradius 33.2041
rwrist -3.10492
rhand -21.2397 -6.60549
rfingers 7.12502
rthumb 5.1429 -36.5231
lclavicle -1.74931e-014 -1.82882e-014
lhumerus -27.3901 -4.38427 86.9349
lradius 33.9313
lwrist 21.0403
lhand -20.2347 10.5075
lfingers 7.12502
lthumb 6.11326 40.3993
rfemur -58.5252 7.16159 21.2938
rtibia 43.2745
rfoot -9.15573 -20.5648
rtoes 8.16993
lfemur -38.9587 7.98287 -21.8428
ltibia 56.6968
lfoot -14.4584 6.98034
ltoes -21.2582
345
root 35.6272 16.2186 -4.35197 -51.4972 88.2962 -76.6123
lowerback 27.2015 -1.29338 0.613512
upperback 6.23325 -1.00088 -0.154882
thorax -8.11638 -0.279732 -0.222058
lowerneck 4.10041 -0.248367 0.786561
upperneck -18.7421 0.59764 2.86344
head -6.36411 0.178781 0.722169
rclavicle 3.97569e-016 -2.18663e-014
rhumerus -28.5061 1.42241 -86.9307
rradius 33.3213
rwrist -3.1938
rhand -21.2356 -6.59903
rfingers 7.12502
rthumb 5.14689 -36.5165
lclavicle 3.97569e-016 -2.18663e-014
lhumerus -27.4149 -4.45853 86.9351
lradius 33.9854
lwrist 21.0646
lhand -20.1994 10.5885
lfingers 7.12502
lthumb 6.1473 40.4793
rfemur -58.7549 7.1389 21.1744
rtibia 43.0879
rfoot -8.73529 -20.4966
rtoes 8.18192
lfemur -38.4591 8.0738 -22.1125
ltibia 55.6355
lfoot -15.4344 7.35569
ltoes -22.2648
346
root 35.5414 16.2113 -4.37648 -47.3055 88.2535 -72.3794
lowerback 27.1972 -1.273 0.570747
upperback 6.23424 -0.989043 -0.171845
thorax -8.11251 -0.273827 -0.22019
lowerneck 4.135 -0.22639 0.795521
upperneck -18.7272 0.623037 2.83716
head -6.36566 0.191715 0.710623
rclavicle 3.22031e-014 4.45278e-014
rhumerus -28.5152 1.45499 -86.9742
rradius 33.4192
rwrist -3.26886
rhand -21.2592 -6.59215
rfingers 7.12502
rthumb 5.12409 -36.5102
lclavicle 3.22031e-014 4.45278e-014
lhumerus -27.4357 -4.53469 86.9398
lradius 34.0087
lwrist 21.135
lhand -20.2341 10.534
lfingers 7.12502
lthumb 6.11382 40.4258
rfemur -58.9721 7.11405 21.0649
rtibia 42.9032
rfoot -8.29959 -20.4263
rtoes 8.15651
lfemur -37.9649 8.15797 -22.3713
ltibia 54.6068
lfoot -16.4083 7.72829
ltoes -23.0126
347
root 35.4544 16.2031 -4.40193 -43.3574 88.1927 -68.3773
lowerback 27.1977 -1.25494 0.534609
upperback 6.23947 -0.97784 -0.188104
thorax -8.10644 -0.268159 -0.221136
lowerneck 4.15377 -0.202024 0.79753
upperneck -18.6803 0.650219 2.81806
head -6.35424 0.205564 0.702345
rclavicle 3.18055e-014 1.86858e-014
rhumerus -28.5091 1.49015 -87.0204
rradius 33.492
rwrist -3.33023
rhand -21.3105 -6.57837
rfingers 7.12502
rthumb 5.07452 -36.4976
lclavicle 3.18055e-014 1.86858e-014
lhumerus -27.4493 -4.60063 86.9445
lradius 34.0006
lwrist 21.249
lhand -20.3442 10.3466
lfingers 7.12502
lthumb 6.00749 40.2414
rfemur -59.181 7.09402 20.9624
rtibia 42.7189
rfoot -7.8496 -20.3575
rtoes 8.09787
lfemur -37.4826 8.22541 -22.6147
ltibia 53.5896
lfoot -17.3313 8.08771
ltoes -23.409
348
root 35.3659 16.1945 -4.42821 -39.9855 88.1163 -64.9427
lowerback 27.2053 -1.24167 0.512318
upperback 6.24611 -0.96846 -0.202253
thorax -8.10252 -0.263472 -0.227057
lowerneck 4.15689 -0.177221 0.792346
upperneck -18.6047 0.676889 2.80733
head -6.33098 0.219148 0.697929
rclavicle -1.59028e-014 -2.54444e-014
rhumerus -28.4945 1.51974 -87.068
rradius 33.5472
rwrist -3.3664
rhand -21.3638 -6.56815
rfingers 7.12502
rthumb 5.02311 -36.4886
lclavicle -1.59028e-014 -2.54444e-014
lhumerus -27.4552 -4.63975 86.941
lradius 33.9767
lwrist 21.3255
lhand -20.4427 10.2044
lfingers 7.12502
lthumb 5.91239 40.1019
rfemur -59.3836 7.08049 20.8656
rtibia 42.5313
rfoot -7.37934 -20.2953
rtoes 7.99006
lfemur -37.0215 8.26401 -22.8355
ltibia 52.5805
lfoot -18.2347 8.42778
ltoes -23.5304
